<svg width="640" height="320" viewBox="0 0 640 320" fill="none" xmlns="http://www.w3.org/2000/svg">
  <rect width="640" height="320" rx="36" fill="white"/>
  <path d="M148 230L222 76H270L346 230H294L276 190H210L191 230H148ZM227 154H259L243 119L227 154Z" fill="#143A74"/>
  <path d="M333 230V76H417C460 76 493 88 515 112C538 136 549 167 549 204C549 242 537 271 513 292C490 312 457 322 415 322H333V230ZM385 184V276H413C435 276 452 270 463 258C475 246 481 228 481 205C481 182 475 164 464 152C452 140 435 134 412 134H385V184Z" fill="#143A74"/>
  <path d="M353 205C353 191 358 179 369 170C380 161 397 156 421 156H447C467 156 482 160 493 169C504 178 509 190 509 206C509 218 505 228 497 236C489 243 479 249 466 252L439 260H509V291H371V272C371 261 375 252 384 244C393 236 406 231 423 227L452 220C458 218 463 216 466 213C470 210 472 206 472 202C472 197 470 193 466 191C462 188 456 187 448 187H424C415 187 408 189 403 193C398 197 396 201 396 205H353Z" fill="#143A74"/>
  <path d="M120 210C194 196 268 158 339 95C367 70 388 58 401 59C406 60 409 63 409 69C409 77 404 90 393 109C373 142 347 173 315 201C282 231 245 253 206 268C176 280 148 286 122 286C109 286 103 283 103 277C103 272 109 266 120 260C139 249 160 238 184 227C220 209 257 189 294 166C331 143 360 120 381 98C386 92 390 87 392 83C381 88 367 99 350 116C282 180 211 223 136 244C112 251 93 254 80 254C67 254 60 251 60 245C60 239 66 232 79 226C91 220 105 215 120 210Z" fill="#143A74"/>
  <path d="M229 269C281 248 329 214 373 169L369 198L355 219L341 229L334 197C304 225 269 249 229 269Z" fill="#143A74"/>
  <text x="192" y="300" fill="#143A74" font-family="Manrope, Arial, sans-serif" font-size="54" font-weight="600" letter-spacing="8">FLIGHTS</text>
</svg>
