<svg width="120" height="120" viewBox="0 0 120 120" fill="none" xmlns="http://www.w3.org/2000/svg">
  <rect width="120" height="120" rx="28" fill="none"/>
  <path d="M24 86L47 34H61L84 86H68L62 72H45L39 86H24ZM50 61H57L53 51L50 61Z" fill="#17D1A2"/>
  <path d="M70 86V34H86C99 34 108 37 114 44C120 50 123 59 123 69C123 81 119 90 111 97C104 103 94 106 82 106H70V86ZM85 51V89H90C96 89 101 87 104 83C108 79 110 74 110 68C110 62 108 57 105 53C101 49 96 47 89 47H85V51Z" fill="#17D1A2" transform="translate(-14 0)"/>
  <path d="M16 75C35 72 53 63 70 49C76 44 82 40 88 37C93 35 96 36 96 39C96 42 94 46 90 51C82 61 73 70 62 78C51 86 39 91 26 95C18 97 11 98 6 98C2 98 0 97 0 95C0 92 5 89 16 85C28 81 40 75 54 68C67 61 79 52 88 42C78 46 67 54 55 65C42 76 29 84 16 88C10 90 5 91 1 91" fill="#17D1A2" transform="translate(10 -2)"/>
</svg>
